/* XPM */
static char *result[] = {
/* columns rows colors chars-per-pixel */
"64 64 3 1 ",
"  c black",
". c #F6BB94",
"X c None",
/* pixels */
"XXXXX      XXXXXXXXXXXXXXXXXXXXXXXXXX      XXXXXXXXXXXXXXXXXXXXX",
"XXXX ...... XXXXXXXXX      XXXXXXXXX ...... XXXXXXXXX      XXXXX",
"XXX ........ XXXXXXX ...... XXXXXXX ........ XXXXXXX ...... XXXX",
"XXX ........ XXXXXX ........ XXXXXX ........ XXXXXX ........ XXX",
"XXX .. .. .. XXXXXX ........ XXXXXX .. .. .. XXXXXX ........ XXX",
"XXX .. .. .. XXXXXX .. .. .. XXXXXX .. .. .. XXXXXX .. .. .. XXX",
"XXX ........ XXXXXX .. .. .. XXXXXX ........ XXXXXX .. .. .. XXX",
"XXXX ...... XXXXXXX ........ XXXXXXX ...... XXXXXXX ........ XXX",
"XXX .      . XXXXXXX ...... . XXXXX .      . XXXXX . ...... XXXX",
"XX .......... XXXXX .       .. XXX .......... XXX ..       . XXX",
"XX .. .... .. XXXX ........ .. XXX .. .... .. XXX .. ........ XX",
"XXX  ......  XXXXX ........   XXXXX  ......  XXXXX   ........ XX",
"XXXX ...... XXXXXX .. ..... XXXXXXXX ...... XXXXXXXX ..... .. XX",
"XXXX ..  .. XXXXXXX  ...... XXXXXXXX ..  .. XXXXXXXX ......  XXX",
"XXXXX  XX  XXXXXXXXXX    .. XXXXXXXXX  XX  XXXXXXXXX ..    XXXXX",
"XXXXXXXXXXXXXXXXXXXXXXXXX  XXXXXXXXXXXXXXXXXXXXXXXXXX  XXXXXXXXX",
"XXXXX      XXXXXXXXXXXXXXXXXXXXXXXXXX      XXXXXXXXXXXXXXXXXXXXX",
"XXXX ...... XXXXXXXXX      XXXXXXXXX ...... XXXXXXXXX      XXXXX",
"XXX ........ XXXXXXX ...... XXXXXXX ........ XXXXXXX ...... XXXX",
"XXX ........ XXXXXX ........ XXXXXX ........ XXXXXX ........ XXX",
"XXX ........ XXXXXX ........ XXXXXX ........ XXXXXX ........ XXX",
"XXX ........ XXXXXX ........ XXXXXX ........ XXXXXX ........ XXX",
"XXX ........ XXXXXX ........ XXXXXX ........ XXXXXX ........ XXX",
"XXXX ...... XXXXXXX ........ XXXXXXX ...... XXXXXXX ........ XXX",
"XXX .      . XXXXX . ...... XXXXXXX .      . XXXXXXX ...... . XX",
"XX .......... XXXX .       . XXXXX .......... XXXXX .       . XX",
"XX .......... XXXXX  ........ XXXX .......... XXXX ........  XXX",
"XXX  ......  XXXXXXX ..... .. XXXXX  ......  XXXXX .. ..... XXXX",
"XXXX ...... XXXXXXXX ......  XXXXXXX ...... XXXXXXX  ...... XXXX",
"XXXX ..  .. XXXXXXXX ...   XXXXXXXXX ..  .. XXXXXXXXX   ... XXXX",
"XXXXX  XX  XXXXXXXXX .. XXXXXXXXXXXXX  XX  XXXXXXXXXXXXX .. XXXX",
"XXXXXXXXXXXXXXXXXXXXX  XXXXXXXXXXXXXXXXXXXXXXXXXXXXXXXXXX  XXXXX",
"XXXXX      XXXXXXXXXXXXXXXXXXXXXXXXXX      XXXXXXXXXXXXXXXXXXXXX",
"XXXX ...... XXXXXXXXX      XXXXXXXXX ...... XXXXXXXXX      XXXXX",
"XXX ........ XXXXXXX ...... XXXXXXX ........ XXXXXXX ...... XXXX",
"XXX ........ XXXXXX ........ XXXXXX ........ XXXXXX ........ XXX",
"XXX ..... .. XXXXXX ........ XXXXXX ..... .. XXXXXX ........ XXX",
"XXX ..... .. XXXXXX ..... .. XXXXXX ..... .. XXXXXX ..... .. XXX",
"XXX ........ XXXXXX ..... .. XXXXXX ........ XXXXXX ..... .. XXX",
"XXXX ...... XXXXXXX ........ XXXXXXX ...... XXXXXXX ........ XXX",
"XXXXX      XXXXXXXXX ...... XXXXXXXXX      XXXXXXXXX ...... XXXX",
"XXXX ..... XXXXXXXXXX       XXXXXXXX ..... XXXXXXXXX       XXXXX",
"XXXX .. .. XXXXXXXXX ....... XXXXXXX .. .. XXXXXXXX ....... XXXX",
"XXXX .. .. XXXXXXXXX ....... XXXXXXX .. .. XXXXXXXX ....... XXXX",
"XXXXX  .. XXXXXXXXXX .....  XXXXXXXXX  .. XXXXXXXXXX  ..... XXXX",
"XXXXXX .. XXXXXXXXX ........ XXXXXXXXX .. XXXXXXXXX ........ XXX",
"XXXXXX    XXXXXXXXXX ..  .. XXXXXXXXXX    XXXXXXXXXX ..  .. XXXX",
"XXXXXXXXXXXXXXXXXXXXX  XX  XXXXXXXXXXXXXXXXXXXXXXXXXX  XX  XXXXX",
"XXXXX      XXXXXXXXXXXXXXXXXXXXXXXXXX      XXXXXXXXXXXXXXXXXXXXX",
"XXXX ...... XXXXXXXXX      XXXXXXXXX ...... XXXXXXXXX      XXXXX",
"XXX ........ XXXXXXX ...... XXXXXXX ........ XXXXXXX ...... XXXX",
"XXX ........ XXXXXX ........ XXXXXX ........ XXXXXX ........ XXX",
"XXX .. ..... XXXXXX ........ XXXXXX .. ..... XXXXXX ........ XXX",
"XXX .. ..... XXXXXX .. ..... XXXXXX .. ..... XXXXXX .. ..... XXX",
"XXX ........ XXXXXX .. ..... XXXXXX ........ XXXXXX .. ..... XXX",
"XXXX ...... XXXXXXX ........ XXXXXXX ...... XXXXXXX ........ XXX",
"XXXXX      XXXXXXXXX ...... XXXXXXXXX      XXXXXXXXX ...... XXXX",
"XXXXX ..... XXXXXXXX       XXXXXXXXXX ..... XXXXXXXXX       XXXX",
"XXXXX .. .. XXXXXXX ....... XXXXXXXXX .. .. XXXXXXXX ....... XXX",
"XXXXX .. .. XXXXXXX ....... XXXXXXXXX .. .. XXXXXXXX ....... XXX",
"XXXXXX ..  XXXXXXXXX  ..... XXXXXXXXXX ..  XXXXXXXXX .....  XXXX",
"XXXXXX .. XXXXXXXXX ........ XXXXXXXXX .. XXXXXXXXX ........ XXX",
"XXXXXX    XXXXXXXXXX ..  .. XXXXXXXXXX    XXXXXXXXXX ..  .. XXXX",
"XXXXXXXXXXXXXXXXXXXXX  XX  XXXXXXXXXXXXXXXXXXXXXXXXXX  XX  XXXXX"
};
