/* XPM */
static char *result[] = {
/* columns rows colors chars-per-pixel */
"64 64 243 2 ",
"   c #010101",
".  c #0C0602",
"X  c #0F0A08",
"o  c #150A05",
"O  c #170D08",
"+  c #1D130C",
"@  c #17110C",
"#  c #1A1613",
"$  c #1E1915",
"%  c #1E1A19",
"&  c #171311",
"*  c #21140D",
"=  c #291705",
"-  c #251B13",
";  c #2A1D15",
":  c #231E1A",
">  c #291F18",
",  c #251711",
"<  c #361C10",
"1  c #2C221B",
"2  c #26221E",
"3  c #31261E",
"4  c #35291F",
"5  c #332E0D",
"6  c #252220",
"7  c #2C2522",
"8  c #2E2824",
"9  c #2F2C29",
"0  c #352B24",
"q  c #392E26",
"w  c #342E2A",
"e  c #392F28",
"r  c #312720",
"t  c #35312D",
"y  c #3C322A",
"u  c #3C3027",
"i  c #3E3B3A",
"p  c #3A3533",
"a  c #51120B",
"s  c #74140C",
"d  c #46380E",
"f  c #512719",
"g  c #41362D",
"h  c #44382F",
"j  c #4D3622",
"k  c #453B32",
"l  c #4A3D34",
"z  c #423E3C",
"x  c #5A3523",
"c  c #643826",
"v  c #55450D",
"b  c #534F13",
"n  c #645C1A",
"m  c #696216",
"M  c #74671F",
"N  c #4C4137",
"B  c #45413E",
"V  c #4D433B",
"C  c #52453A",
"Z  c #56473B",
"A  c #584F25",
"S  c #624527",
"D  c #6D4A36",
"F  c #75593D",
"G  c #6F522F",
"H  c #777526",
"J  c #6D6E2B",
"K  c #494644",
"L  c #4B4A49",
"P  c #494644",
"I  c #5C4D42",
"U  c #544E4B",
"Y  c #5E5246",
"T  c #555352",
"R  c #5D5B5B",
"E  c #5B5755",
"W  c #6B5B4D",
"Q  c #645649",
"!  c #685C52",
"~  c #705F51",
"^  c #64605D",
"/  c #6C6057",
"(  c #736254",
")  c #79695B",
"_  c #746F48",
"`  c #656363",
"'  c #696664",
"]  c #6C6B6B",
"[  c #6A6867",
"{  c #706F6F",
"}  c #786D61",
"|  c #79736A",
" . c #7B7A79",
".. c #797775",
"X. c #87130A",
"o. c #982815",
"O. c #893117",
"+. c #922B17",
"@. c #AA381B",
"#. c #B33617",
"$. c #8B3421",
"%. c #B43F25",
"&. c #A63620",
"*. c #C03410",
"=. c #8C5434",
"-. c #AB4825",
";. c #867430",
":. c #A36822",
">. c #C5421F",
",. c #C6543A",
"<. c #C74C2D",
"1. c #8A5F4B",
"2. c #985C44",
"3. c #B65946",
"4. c #936A54",
"5. c #98725C",
"6. c #8F7249",
"7. c #AB7858",
"8. c #837263",
"9. c #8C7C6D",
"0. c #84766A",
"q. c #827D78",
"w. c #8E7565",
"e. c #A67C6A",
"r. c #BA7561",
"t. c #C45B49",
"y. c #C06247",
"u. c #C47D72",
"i. c #7B881A",
"p. c #78800F",
"a. c #898B2B",
"s. c #8B952B",
"d. c #8C8736",
"f. c #928738",
"g. c #999835",
"h. c #938F2B",
"j. c #96A038",
"k. c #968846",
"l. c #929545",
"z. c #988359",
"x. c #88884D",
"c. c #A49958",
"v. c #A38D53",
"b. c #9CA250",
"n. c #AFAB55",
"m. c #8C8477",
"M. c #96887A",
"N. c #929664",
"B. c #A8866A",
"V. c #B98668",
"C. c #A79865",
"Z. c #A88A77",
"A. c #B9967B",
"S. c #B1946F",
"D. c #B9B168",
"F. c #B8B377",
"G. c #AEAA72",
"H. c #D09170",
"J. c #C2B779",
"K. c #C8AD72",
"L. c #C18954",
"P. c #CECA71",
"I. c #858381",
"U. c #8D8985",
"Y. c #968C84",
"T. c #99928A",
"R. c #9B9593",
"E. c #A7978A",
"W. c #B99885",
"Q. c #A59C94",
"!. c #B6A685",
"~. c #ABA198",
"^. c #BAA697",
"/. c #BCB98E",
"(. c #B5B3AC",
"). c #BCBCB8",
"_. c #ACAAA6",
"`. c #C79E85",
"'. c #C5A58A",
"]. c #D3A78A",
"[. c #C9B889",
"{. c #C9A795",
"}. c #D3AD9C",
"|. c #C7B799",
" X c #DEB79C",
".X c #CDB2A4",
"XX c #C3B5A8",
"oX c #D4B6A9",
"OX c #D6BBAD",
"+X c #D6B9A5",
"@X c #D4BEB2",
"#X c #D8BFB0",
"$X c #CCAFA1",
"%X c #E1BFA5",
"&X c #BFC0BF",
"*X c #C9C587",
"=X c #CCC696",
"-X c #DAC490",
";X c #DBC0AD",
":X c #C7C3BE",
">X c #DCC3B4",
",X c #D9C6B9",
"<X c #D8CFA8",
"1X c #E4CBBC",
"2X c #E1C7B7",
"3X c #E6D1BD",
"4X c #E5CAA7",
"5X c #EEEDB6",
"6X c #CAC9C5",
"7X c #DFCEC3",
"8X c #D8D5C7",
"9X c #DBDBD7",
"0X c #CED2C0",
"qX c #E4CDC1",
"wX c #E5D0C2",
"eX c #EAD6CA",
"rX c #EBD9CD",
"tX c #E7D6C7",
"yX c #F0DBCA",
"uX c #ECDCD2",
"iX c #E3DCD5",
"pX c #F0DDD1",
"aX c #EEE1D5",
"sX c #E2E1DA",
"dX c #ECE5DD",
"fX c #EAE8D9",
"gX c #F1E1D5",
"hX c #F2E5DB",
"jX c #F3E8DE",
"kX c #F6E8DB",
"lX c #E8E1C8",
"zX c #ECEAE3",
"xX c #EAEAE5",
"cX c #F4ECE3",
"vX c #F9EEE6",
"bX c #F6ECE6",
"nX c #F5F1E7",
"mX c #F5F2E9",
"MX c #FAF4EC",
"NX c #F9F0E6",
"BX c #FBF7F1",
"VX c #FDFAF2",
"CX c None",
/* pixels */
"CXCXCXCXCXCXCXCXCXCXCXCXCXCXCXCXCXCXCXCXCXCXCXCXCXCXCXCXCXCXCXCXCXCXCXCXCXCXCXCXCXCXCXCXCXCXCXCXCXCXCXCXCXCXCXCXCXCXCXCXCXCXCXCX",
"CXCXCXCXCXCXCXCXCXCXCXCXCXCXCXCXCXCXCXCXCXCXCXCXCXCXCXCXCXCXCXCXCXCXCXCXCXCXCXCXCXCXCXCXCXCXCXCXCXCXCXCXCXCXCXCXCXCXCXCXCXCXCXCX",
"CXCXCXCXCXCXCXCXCXCXCXCXCXCXCXCXCXCXCXCXCXCXCXCXCXCXCXCXCXCXCXCXCXCXCXCXCXCXCXCXCXCXCXCXCXCXCXCXCXCXCXCXCXCXCXCXCXCXCXCXCXCXCXCX",
"CXCXCXCXCXCXCXCXCXCXCXCXCXCXCXCXCXCXCXCXCXCXCXCXCXCXCXCXCXCXCXCXCXCXCXCXCXCXCXCXCXCXCXCXCXCXCXCXCXCXCXCXCXCXCXCXCXCXCXCXCXCXCXCX",
"CXCXCXCXCXCXCXCXCXCXCXCXCXCXCXCXCXCXCXCXCXCXCXCXCXCXCXCXCXCXCXCXCXCXCXCXCXCXCXCXCXCXCXCXCXCXCXCXCXCXCXCXCXCXCXCXCXCXCXCXCXCXCXCX",
"CXCXCXCXCXCXCXCXCXCXCXCXCXCXCXCXCXCXCXCXCXCXCXCXCXCXCXCXCXCXCXCXCXCXCXCXCXCXCXCXCXCXCXCXCXCXCXCXCXCXCXCXCXCXCXCXCXCXCXCXCXCXCXCX",
"CXCXCXCXCXCXCXCXCXCXCXCXCXCXCXCXCXCXCXCXCXCXCXCXCXCXCXCXCXCXCXCXCXCXCXCXCXCXCXCXCXCXCXCXCXCXCXCXCXCXCXCXCXCXCXCXCXCXCXCXCXCXCXCX",
"CXCXCXCXCXCXCXCXCXCXCXCXCXCXCXCXCXCXCXCXCXCXCXCXCXCXCXCXCXCXCXCXCXCXCXCXCXCXCXCXCXCXCXCXCXCXCXCXCXCXCXCXCXCXCXCXCXCXCXCXCXCXCXCX",
"CXCXCXCXCXCXCXCXCXCXCXCXCXCXCXCXCXCXCXCXCXCXCXCXCXCXCXCXCXCXCXCXCXCXCXCXCXCXCXCXCXCXCXCXCXCXCXCXCXCXCXCXCXCXCXCXCXCXCXCXCXCXCXCX",
"CXCXCXCXCXCXCXCXCXCXCXCXCXCXCXCXCXCXCXCXCXCXCXCXCXCXCXCXCXCXCXCXCXCXCXCXCXCXCXCXCXCXCXCXCXCXCXCXCXCXCXCXCXCXCXCXCXCXCXCXCXCXCXCX",
"CXCXCXCXCXCXCXCXCXCXCXCXCXCXCXCXCXCXCXCXCXCXCXCXCXCXCXCXCXCXCXCXCXCXCXCXCXCXCXCXCXCXCXCXCXCXCXCXCXCXCXCXCXCXCXCXCXCXCXCXCXCXCXCX",
"CXCXCXCXCXCXCXCXCXCXCXCXCXCXCXCXCXCXCXCXCXCXCXCXCXCXCXCXCXCXCXCXCXCXCXCXCXCXCXCXCXCXCXCXCXCXCXCXCXCXCXCXCXCXCXCXCXCXCXCXCXCXCXCX",
"CXCXCXCXCXCXCXCXCXCXCXCXCXCXCXCXCXCXCXCXCXCXCXCXCXCXCXCXCXCXCXCXCXCXCXCXCXCXCXCXCXCXCXCXCXCXCXCXCXCXCXCXCXCXCXCXCXCXCXCXCXCXCXCX",
"CXCXCXCXCXCXCXCXCXCXCXCXCXCXCXCXCXCXCXCXCXCXCXCXCXCXCXCXCXCXCXCXCXCXCXCXCXCXCXCXCXCXCXCXCXCXCXCXCXCXCXCXCXCXCXCXCXCXCXCXCXCXCXCX",
"CXCXCXCXCXCXCXCXCXCXCXCXCXCXCXCXCXCXCXCXCXCXR { { ] { ^ T L K B B P U ^ {  . . ...P CXCXCXCXCXCXCXCXCXCXCXCXCXCXCXCXCXCXCXCXCXCX",
"CXCXCXCXCXCXCXCXCXCXCXCXCXCXCXCXCXCXT R [ T 0 $ $ + + @ O O o o * o O + * * + + 2 P  .I. .K CXCXCXCXCXCXCXCXCXCXCXCXCXCXCXCXCXCX",
"CXCXCXCXCXCXCXCXCXCXCXCXCXCXCXi L U r 1 , * * = * O O o v a O.&.H.2.@ @ @ o ..+ 1 4 1 1 2 E m.] 6 CXCXCXCXCXCXCXCXCXCXCXCXCXCXCX",
"CXCXCXCXCXCXCXCXCXCXCXCXCXt K w : + * , , , , ; , , f %.>.#.y.=.d.P.P.F.F./.,XR = ; 4 0 q 0 7 w ' ' 7 CXCXCXCXCXCXCXCXCXCXCXCXCX",
"CXCXCXCXCXCXCXCXCXCXCX% t w > > 3 3 3 r 0 r 3 1 ; D ,.<.-.r.H.S z.n.z.F.l.l.N.(.* 1 3 4 0 0 y y r e E T X CXCXCXCXCXCXCXCXCXCXCX",
"CXCXCXCXCXCXCXCXCX% 2 9 8 3 0 q 0 0 r 1 > w E 9.;.#.,.3.,.u.=.4.[.6.i.s.F.x.=X,X{ E t 2 3 3 0 y g g e e L $ CXCXCXCXCXCXCXCXCXCX",
"CXCXCXCXCXCXCXCX& % 8 3 h y y y 3 2 B q.(.sXsXH.%.7.K.3.o.$.j.n.K.x.b C.F.G.=XlXlXsX0X&XI.B 6 8 0 g h k g t % X CXCXCXCXCXCXCXCX",
"CXCXCXCXCXCXCX: # 3 N N k y 0 t | &XsXsXx.8XV.,.3.o.7.5X4XH H s.g.*X_ 5 c.!.c.H i.s.i.s.fXsX&X{ w 0 q g k k 8 % X CXCXCXCXCXCXCX",
"CXCXCXCXCXCX2 # 2 Z V N y y  .6XfXmXmXVXG.v.#.#.t.t.=.a.=X*Xd.s.H 5.P.J.d.H C.=Xb.=XJ s.=XmXmXxX9XI.0 t g N V $ % CXCXCXCXCXCXCX",
"CXCXCXCXCX8 $ $ Q Z N y ^ 6XfXnXmXmXmXfXn.O.@.>.t.%.e.k.i.b A a.b.[.-XK.[.z.M H j.n.*Xl.j.F.nXmXmXxX6XL y N ! I $ & CXCXCXCXCXCX",
"CXCXCXCXCX: @ Y Q N t T.9XcXmXnXmXfXP.K.=.X.&.%.X.X.u.m H 5 d l.n.J.4XK.n.lXG.C.;.b.D.n.s.k.tXhXmXmXmXsX .y Q | y % 2 CXCXCXCXCX",
"CXCXCXCXCX@ : | Y k _.xXcXmXmXnXcX3X:.@.%.%.+.s a +.D H m S b H f.h.n.h.D.|.,XlX<X*Xn.K.n n 1XtXfXmXmXnXxXU.N } } & % CXCXCXCXCX",
"CXCXCXCX9 # z | B Q.sXcXbXmXmXNXeXoXr.X.X.&.&.s O 6.f.k.G B.F a.b H n J l.!.B.!.|.*Xz.[.G z.>X@X,XfXcXnXnXfXI.E Y.# # CXCXCXCXCX",
"CXCXCXCX7 # V ) ..sXcXnXmXbXNXuX].].e.s e.a a a < A Z.W.W.].j n v b p.i.m F.|./.<XC.S.S.+X+X1X3XrXdXrXfXxXmXsXR U.7 # CXCXCXCXCX",
"CXCXCXCXz : i ^ :XzXnXnXzXfXiX,Xr.$.2.4.oXZ.5.4.W.W.>X+XW.f 3 F d v d M S d h.v.=.z.B.5.{.2X2XyXjXcXaXdXzXcXxX~...: & CXCXCXCXCX",
"CXCXCXCXCX: 6 m.sXzXnXzXzXdXrXoX{.{.}.@X2X$X@X>XoX$X@X1Xx ; 1.Z.B.Z = d F E.4.V.5.^.Z.4.S.>X1XrXcXjXcXcXcXzXmX9X^ : 7 CXCXCXCXCX",
"CXCXCXCXCXi #  .zXnXnXnXcXdXiX>X}.}.oXOX@XoX@XqXeXeXrX'.c e.#XOX}.W.= D A.A.4X;XoX{.B.Z.Z.'.>X,XjXcXvXnXmXcXmXxXV : ! CXCXCXCXCX",
"CXCXCXCXCXM.7 2 sXmXnXcXcXjXgXrXuXwXqX.X@XeXbXuXeXrXrXV.1.3X1XoX.X+XD ^.Z.'.2XwXuX,X$XW.'.oX.X,XwXjXnXnXmXbXBX(.: w U.CXCXCXCXCX",
"CXCXCXCXCX,XU 6 i xXMXmXcXvXbXzXhXeX1XeX1XqXbXuXpXpX#X2.2XeXqX#XuX3X'.@X.X1X7XrXeXqXoX;X>X,X,XhXuXjXcXnXmXBX8X7 7 q.CXCXCXCXCXCX",
"CXCXCXCXCX~.^.V t B 9XBXMXvXvXcXpXqX1X#X#XeXpXvXbX}.=.V.uXcXrXrXhX`.{.,X>XwXaXqXqXrX>XqX@XuXuXrXhXjXcXmXBX:X9 w / XXCXCXCXCXCXCX",
"CXCXCXCXCXm.E.E.B i t _.VXMXNXbXhXqX#XeXpXvXvXBXkX=.D `.eXbXvXuX@XA.e.,X,XuXcXcXzX>X@XqXeXgXhXdXkXvXMXBXU.6 p W ~.^.CXCXCXCXCXCX",
"CXCXCXCXCXCXE.m.Y.I B L E 6XBXbXbXpXpXhXpXbXvXvXr.4.#X2XeXhXVXmXcX.X`.1XrXeXcXNXbXMXrX1X1XrXvXvXmXMX).z e z ( M.9.^.CXCXCXCXCXCX",
"CXCXCXCXCXCX^.w.) 9.W t T ^ ' (.bXpXpXpXpXeXyX%XW.#XqXeXpXMXBXVXBXvX#XpXhXcXhXBXcXkX3XgXaXuXBXBX(.E w z C ) 8.8.9.M.CXCXCXCXCXCX",
"CXCXCXCXCXCX~.m.) W W ( N 0 E [ ` U.:XvXpX%X].].,XuXpXcXbXcXbXbXbXvX#XvXBXvXBXmXvXyX+XcXmX:Xm.P i z k I ~ W ( } M.CXCXCXCXCXCXCX",
"CXCXCXCXCXCXCXE.8.Q I Z I Q l w w ` { q.I.R.:XbXBXvXbXpXhXhXgXrX XH.#XpXpXvXvXkXrX{.9. .R L P e y l Z Z I Q ( 0.E.CXCXCXCXCXCXCX",
"CXCXCXCXCXCXCXY.9./ Y Z l C C C l g 7 : i ^ [ ] I.Q.R.T.E.Q.E.Z.Y.E.E.Y.Y.U.Y.q.^ T ^ K 0 q g k l l l C Z Q ( 9.CXCXCXCXCXCXCXCX",
"CXCXCXCXCXCXCXCXM.) Q Z C l k k h h h h g 1 , X X % p T R ' { ] ] ` E T z p : & $ 7 0 q g h h k h h h C I W ) 0.CXCXCXCXCXCXCXCX",
"CXCXCXCXCXCXCXCXCX8.W I C N l g g g e g g g g p y 0 7 1 : : : : > ; > 7 r 0 e w q y y g p h h h k h k C I ~ 0.CXCXCXCXCXCXCXCXCX",
"CXCXCXCXCXCXCXCXCX} ( I I N l k g e e g e e e e e 0 0 y y e y y e e e e q y e e e e y y y h g g h h N Z D ( CXCXCXCXCXCXCXCXCXCX",
"CXCXCXCXCXCXCXCXCXCX~ Q Z C l k g q e e e e q q q 0 q w 0 e 0 e e e e e w q e e e y y g g g y g g h l C Q CXCXCXCXCXCXCXCXCXCXCX",
"CXCXCXCXCXCXCXCXCXCXCXQ D Z l h g g q e g e e q 0 e e 0 q w 0 0 e e y e e e 0 e y y y y y h g y g h l C CXCXCXCXCXCXCXCXCXCXCXCX",
"CXCXCXCXCXCXCXCXCXCXCXCXe l l h g g e 0 e e q q 0 0 q 0 0 0 y 0 w e e e e e 0 e e e y q q q q q u u h CXCXCXCXCXCXCXCXCXCXCXCXCX",
"CXCXCXCXCXCXCXCXCXCXCXCXCXCXq h g q e e q q q 0 0 0 0 0 0 e 0 0 w 0 0 0 0 0 w 0 0 e 0 q 0 3 0 4 q 1 CXCXCXCXCXCXCXCXCXCXCXCXCXCX",
"CXCXCXCXCXCXCXCXCXCXCXCXCXCXCX; q 4 r r r r 0 0 0 0 3 0 0 0 0 3 r r r r r r 3 0 r 1 3 1 1 1 1 4 CXCXCXCXCXCXCXCXCXCXCXCXCXCXCXCX",
"CXCXCXCXCXCXCXCXCXCXCXCXCXCXCXCXCX1 0 1 > 1 ; - > > > > 1 > 1 1 > 1 1 1 > ; - - - , - > > q - CXCXCXCXCXCXCXCXCXCXCXCXCXCXCXCXCX",
"CXCXCXCXCXCXCXCXCXCXCXCXCXCXCXCXCXCXCX, , ; - * - * * + , + + + + * * * * * * ; - - 4 3 > CXCXCXCXCXCXCXCXCXCXCXCXCXCXCXCXCXCXCX",
"CXCXCXCXCXCXCXCXCXCXCXCXCXCXCXCXCXCXCXCXX + 1 ; 1 - * , * * * * + * * * - - ; 4 1 4 , CXCXCXCXCXCXCXCXCXCXCXCXCXCXCXCXCXCXCXCXCX",
"CXCXCXCXCXCXCXCXCXCXCXCXCXCXCXCXCXCXCXCXCXCX. o + * * - - - - ; - ; - ; 1 ; ; - @ . CXCXCXCXCXCXCXCXCXCXCXCXCXCXCXCXCXCXCXCXCXCX",
"CXCXCXCXCXCXCXCXCXCXCXCXCXCXCXCXCXCXCXCXCXCXCX    . . . o o o O O + O o o o .     CXCXCXCXCXCXCXCXCXCXCXCXCXCXCXCXCXCXCXCXCXCXCX",
"CXCXCXCXCXCXCXCXCXCXCXCXCXCXCXCXCXCXCXCXCXCXCXCX                                CXCXCXCXCXCXCXCXCXCXCXCXCXCXCXCXCXCXCXCXCXCXCXCX",
"CXCXCXCXCXCXCXCXCXCXCXCXCXCXCXCXCXCXCXCXCXCXCXCXCXCXCXCXCX              CXCXCXCXCXCXCXCXCXCXCXCXCXCXCXCXCXCXCXCXCXCXCXCXCXCXCXCX",
"CXCXCXCXCXCXCXCXCXCXCXCXCXCXCXCXCXCXCXCXCXCXCXCXCXCXCXCXCXCXCXCXCXCXCXCXCXCXCXCXCXCXCXCXCXCXCXCXCXCXCXCXCXCXCXCXCXCXCXCXCXCXCXCX",
"CXCXCXCXCXCXCXCXCXCXCXCXCXCXCXCXCXCXCXCXCXCXCXCXCXCXCXCXCXCXCXCXCXCXCXCXCXCXCXCXCXCXCXCXCXCXCXCXCXCXCXCXCXCXCXCXCXCXCXCXCXCXCXCX",
"CXCXCXCXCXCXCXCXCXCXCXCXCXCXCXCXCXCXCXCXCXCXCXCXCXCXCXCXCXCXCXCXCXCXCXCXCXCXCXCXCXCXCXCXCXCXCXCXCXCXCXCXCXCXCXCXCXCXCXCXCXCXCXCX",
"CXCXCXCXCXCXCXCXCXCXCXCXCXCXCXCXCXCXCXCXCXCXCXCXCXCXCXCXCXCXCXCXCXCXCXCXCXCXCXCXCXCXCXCXCXCXCXCXCXCXCXCXCXCXCXCXCXCXCXCXCXCXCXCX",
"CXCXCXCXCXCXCXCXCXCXCXCXCXCXCXCXCXCXCXCXCXCXCXCXCXCXCXCXCXCXCXCXCXCXCXCXCXCXCXCXCXCXCXCXCXCXCXCXCXCXCXCXCXCXCXCXCXCXCXCXCXCXCXCX",
"CXCXCXCXCXCXCXCXCXCXCXCXCXCXCXCXCXCXCXCXCXCXCXCXCXCXCXCXCXCXCXCXCXCXCXCXCXCXCXCXCXCXCXCXCXCXCXCXCXCXCXCXCXCXCXCXCXCXCXCXCXCXCXCX",
"CXCXCXCXCXCXCXCXCXCXCXCXCXCXCXCXCXCXCXCXCXCXCXCXCXCXCXCXCXCXCXCXCXCXCXCXCXCXCXCXCXCXCXCXCXCXCXCXCXCXCXCXCXCXCXCXCXCXCXCXCXCXCXCX",
"CXCXCXCXCXCXCXCXCXCXCXCXCXCXCXCXCXCXCXCXCXCXCXCXCXCXCXCXCXCXCXCXCXCXCXCXCXCXCXCXCXCXCXCXCXCXCXCXCXCXCXCXCXCXCXCXCXCXCXCXCXCXCXCX",
"CXCXCXCXCXCXCXCXCXCXCXCXCXCXCXCXCXCXCXCXCXCXCXCXCXCXCXCXCXCXCXCXCXCXCXCXCXCXCXCXCXCXCXCXCXCXCXCXCXCXCXCXCXCXCXCXCXCXCXCXCXCXCXCX"
};
