/* XPM */
static char *result[] = {
/* columns rows colors chars-per-pixel */
"64 64 120 2 ",
"   c #4B335C",
".  c #523C5F",
"X  c #4E3661",
"o  c #503763",
"O  c #533C62",
"+  c #553D6A",
"@  c #583F6F",
"#  c #584266",
"$  c #5D4867",
"%  c #5A4469",
"&  c #5F4A6E",
"*  c #5B4273",
"=  c #624C6D",
"-  c #65516D",
";  c #604675",
":  c #614A76",
">  c #644C7A",
",  c #655171",
"<  c #695572",
"1  c #6D5A76",
"2  c #67507D",
"3  c #69537D",
"4  c #6E5A7A",
"5  c #705C7D",
"6  c #74617E",
"7  c #7C6C7C",
"8  c #6B5480",
"9  c #6F5982",
"0  c #715C85",
"q  c #766482",
"w  c #796782",
"e  c #7D6B83",
"r  c #77638A",
"t  c #7A658C",
"y  c #7E6B8D",
"u  c #7E6A91",
"i  c #806F84",
"p  c #827186",
"a  c #847389",
"s  c #88778E",
"d  c #8B7C8F",
"f  c #816D93",
"g  c #857394",
"h  c #8C7D95",
"j  c #877699",
"k  c #887699",
"l  c #8D7C9D",
"z  c #907F9F",
"x  c #907FA0",
"c  c #948597",
"v  c #988B90",
"b  c #91819F",
"n  c #9F909F",
"m  c #A0919F",
"M  c #9484A3",
"N  c #9989A7",
"B  c #9C8CA9",
"V  c #9E91A4",
"C  c #9E90AD",
"Z  c #A294A3",
"A  c #A699A4",
"S  c #AA9DA3",
"D  c #A294AC",
"F  c #A599AB",
"G  c #A89BAE",
"H  c #A596B1",
"J  c #A799B3",
"K  c #AA9DB3",
"L  c #AEA3A5",
"P  c #AFA3A9",
"I  c #B0A4A6",
"U  c #B3A9A5",
"Y  c #B0A3AA",
"T  c #B5AAAE",
"R  c #BDB4AD",
"E  c #AFA3B6",
"W  c #AEA2BA",
"Q  c #B1A5B3",
"!  c #B2A5BC",
"~  c #B5AABC",
"^  c #BCB1B5",
"/  c #BAB1BC",
"(  c #C0B7B0",
")  c #B7ABC0",
"_  c #B9AEC2",
"`  c #BDB4C3",
"'  c #C1B7C5",
"]  c #C3BAC6",
"[  c #C4BBCB",
"{  c #C9C1C6",
"}  c #CCC4CD",
"|  c #CEC9C9",
" . c #D1C9CD",
".. c #CDC5D1",
"X. c #CFC9D2",
"o. c #D2CBD3",
"O. c #D4CDD9",
"+. c #D7D2D6",
"@. c #D8D3D7",
"#. c #D7D1DA",
"$. c #DBD5DB",
"%. c #DED9DB",
"&. c #E2DEDF",
"*. c #E5E1DE",
"=. c #DDD9E1",
"-. c #E2DDE3",
";. c #E6E2E2",
":. c #E9E6E5",
">. c #ECE9E7",
",. c #E7E4E9",
"<. c #EAE6EA",
"1. c #EEEBED",
"2. c #F0EEEF",
"3. c #F2F1EF",
"4. c #EFECF0",
"5. c #F0EEF1",
"6. c #F5F3F4",
"7. c #F8F7F6",
"8. c #F8F6F8",
"9. c #FFFFFE",
/* pixels */
"9.9.9.9.9.9.9.9.9.9.9.9.9.9.9.9.9.9.9.9.9.7.9.9.,.[ J l t 8 * * @ > 8 t x J [ 4.8.9.9.9.9.9.9.9.9.9.9.9.9.9.9.9.9.9.9.9.9.9.9.9.",
"9.9.9.9.9.9.9.9.9.9.9.9.9.9.9.9.9.9.9.9.9.O.B 0 * * * @ @ * * * @ @ @ ; @ @ * * 0 C O.8.9.9.9.9.9.9.9.9.9.9.9.9.9.9.9.9.9.9.9.9.",
"9.9.9.9.9.9.9.9.9.9.9.9.9.9.9.9.8.9.4.! 9 * * * * * * * * * * * * * * * * * * * * * * 0 ! 5.9.9.9.9.9.9.9.9.9.9.9.9.9.9.9.9.9.9.",
"9.9.9.9.9.9.9.9.9.9.9.9.9.9.9.9.4.C 8 * @ * * * * * * * * * * * * * * * * * * * * * * * * > J 5.9.9.9.9.9.9.9.9.9.9.9.9.9.9.9.9.",
"9.9.9.9.9.9.9.9.9.9.9.9.9.9.7.~ 8 @ @ @ * * * * * * * * * * * * * * * * * * * * * * * * * * * 8 _ 7.9.9.9.9.9.9.9.9.9.9.9.9.9.9.",
"9.9.9.9.9.9.9.9.9.9.9.9.9.=.u * 8 * @ @ * * * * * * * @ * * * * * * * * * * * * * * * * * * * * * f -.9.9.9.9.9.9.9.9.9.9.9.9.9.",
"9.9.9.9.9.9.9.9.9.9.9.9.` > * * * * * * * * * * * * * * * * * * * * * * * * * * * * * * * * * * * * 2 [ 9.9.9.9.9.9.9.9.9.9.9.9.",
"9.9.9.9.9.9.9.9.9.9.8.B * * * * @ ; @ * * * * * * * * * * * * * * * * * * * * * * * * * * * * * * * * * D 7.9.9.9.9.9.9.9.9.9.9.",
"9.9.9.9.9.9.9.9.9.6.l * * * * * * @ * * * * * * * * * * * * * * * * * * * * * * * * * * * * * * * * * * * M 8.9.9.9.9.9.9.9.9.9.",
"9.9.9.9.9.9.9.9.6.j * * * * * * * * * * * * * * * * * * * * * * * * * * * * * * * * * * * * * @ * * * * * * l 8.9.9.9.9.9.9.9.9.",
"9.9.9.9.9.9.9.8.l * * * * * * * * * * * * * * * * * * @ * * * * * @ * * * * * * * * * * * * * * * * * * * * * M 7.9.9.9.9.9.9.9.",
"9.9.9.9.9.9.9.B * * * * * * * * * * * * * * * * * * * * * * * * * * * * * * * * * * * * * * * * * * * * * * * * H 9.9.9.9.9.9.9.",
"9.9.9.9.9.9._ * * * * * * * * * * * * * * * * * * * * * * * * * * * * * * * * * * * * * * * * * * * * * * * * * * [ 9.9.9.9.9.9.",
"9.9.9.9.9.=.> * * * * * * * * * * * * * * * * * * * * * * * * * * * * * * * * * * * * @ * * > @ * * * * * * * * * > -.9.9.9.9.9.",
"9.9.9.9.8.u * * * * * * @ * * * * * @ @ * 8 * * * * * * * * * * * * * * * * * * * * * * * @ j 8 * * * * * * * * * * f 9.9.9.9.9.",
"9.9.9.9.) * * * * * * * * * * * * @ ; @ 8 [ 8 * * * * * * * * * * * * * * * * * * * * * * u -.) * * * * * * * * * * * ` 9.9.9.9.",
"9.9.9.1.> * * * * * * * * * * * * * * * * k * * * * * * * * * * * * * * * * * * * * * * * * W t * * * * * * * * * * * 8 5.9.9.9.",
"9.9.9.H * * * * * * * * * * @ ; * * * * * * * * * * * * * * * @ * * * * * * * * * * * * * * 8 > 8 * * * * * * * * * * * K 9.9.9.",
"9.9.4.> * * * * * * * * * * * @ * @ * @ * * * * * * * * * * * * * * * * * * * * * * * * * * * j ) * * * * * * * * * * * > 6.9.9.",
"9.9.W * * * * * * * * * * * * * * t M > * r x 8 * * * * * * * * * * * * * * * * l y * & l j * > u * * * * * * * * * * * * ) 9.9.",
"9.8.9 * * * * * * * * * * * * * * K 6.0 * K 7.y * * * * * * * * * * * * * * * : 2.' * : 1.X.* * @ * * * * * * @ * * * * * r 9.9.",
"9.O.* * * * * * * * * @ * * * * * K 6.4 * K 7.t * * * * * * * * * * * * * * * : 2.` * > 1.X.* * * * * * * * * * * * * * * * $.9.",
"9.C * * * * * * * * @ > * * * * * K 6.0 * K 9.t * * * * * * * * * * * * * * * : 2.` * > 1.X.* * * * * * * * * * * * * * * * J 9.",
"9.9 * * * * * * * @ 8 ! > * * * @ E 6.0 * K 9.t * @ * * * * * * * * * * * * * ; 2.' * > 1.X.* * * * * * * * * * * * * * * * r 9.",
",.* * * * * * * * * > B 9 * * * * o.9.E g %.7.t * * * * * * * * * * * * * * * ; 1.:.k D 7.o.* * * * * * * * * * * * * * * * * 5.",
"[ * * * * * * * * * * > _ f * * t [ 9.9.9.9.9.t * * * * * * * * * * * * * * * : 1.9.9.9.9.:.0 * * * * * * * * * * * * * * @ * ..",
"J * * * * * * * * * * * t > * * N } 9.%.] <.9.t * * * * * * * * * * * * * * * : 1.6.~ $.9.>.K * * * * * * * * * * * * * * * * W ",
"k * * * * * * * * * * * * * * k M ' 6.b E ] 7.w * * * * * * * * * * * * * * * : 1.] B D 1.O.! t * * * * * * * * * * * * * * * M ",
"t * * * * * * * * * * * * * f l M K 6.0 l ..9.t * * * * * * * * * * * * * * * ; 1.$.J 0 4.o.f W 8 * * * * * * * * * * * * * * f ",
"8 * * * * * * * * * * * * g k N : J 6.4 * ` 7.f * * * * * * @ * * * * * * * * : 1.@.t > 4.X.* B N * * * * * * * * * * * * @ * 0 ",
"* * * * * * * * * * * > N f N > * K 6.9 * E 7.E y * * * * * * * * * * * * * * M 6.` * > 4...* > J N * * * * * * * * * * * * * 8 ",
"* * * * * * : * * > M l j x * * * K 6.9 * K 9.K N N > * * * * * * * * * * 0 N B 5.` * > 1.X.* * 8 C N 8 * * * * * ; ; * * * * * ",
"* * * * * $.7.%.M l l N 9 * * * * K 6.9 % E 9.t y N N M 9 * * * * * > j M N N 0 2.' * : 2.o.* * * 3 B N l : * ; $.8.o.+ * * * : ",
"* * * * * &.9.-.M x 3 * * * * * * K 6.4 * K 7.w * * l M N b b l l l M M M u * ; 1.' * : 1. .* * * * ; l N N x x ;.9.+.  + * * 3 ",
"8 * * * * -.9.@.* * * * * * * * * K 8.0 * K 9.t * * * * r x b l M x g > * * * : 2.' * > 1...* * * * * * : k x x ;.9.+.    + * 0 ",
"r * * * * &.9.:.Y P Y Y P Y P P L | 8.T Y  .7.^ Y Y Y P P P P P P P Y P Y Y Y Y 3.@.Y Y 6.&.Y Y Y Y Y Y Y Y Y Y 1.9.+.      + f ",
"l * * * * -.9.$.q e 5 w e 4 e w 5 ^ 8.d e ~ 9.c 9 7 6 w e 4 e e 4 e 7 6 e 5 w p 2.} 7 q 3.o.w 7 4 e e 5 e 5 7 i ;.9.+.        z ",
"J * * * * -.9.;.S m L A V L n S L [ 9.} Q 1.7.T L B S S V P m A I n S S Z L m Z 3.2./ | 9.&.A m I Z Z L m S S m :.9.+.        F ",
"[ * * * * 5 6 6 < < < < < < < < < Q 9.6.<.9.9.a < < < < < < < < < < < < < < < 1 2.7.1.3.9. .< < < < < < < < < < 5 7 1         } ",
"<.* * * * #                       Z 7.e + ( 7.1                               . 2. .O 1 6.}                                   1.",
"9.0 * * * * o                     Z 6.=   F 7.4                               . 1./   O 1.}                                 < 9.",
"9.C * * * * @                     D 6.-   F 9.1                               . 1./   O 1.}                                 C 9.",
"9.#.* * * * *                     Z 6.:   F 7.1                               . 2./   O <.}                                 $.9.",
"9.8.0 * * * * @                   Z 6.=   A 9.4                               . 1./   O 1.}                               < 9.9.",
"9.9.W * * * * *                   A 3.-   F 7.4                               . 1./   # 1.}                               ! 9.9.",
"9.9.5.> * * * * +                 A >.6 $ A 2.6                               # &.^ $ - *.] .                           % 6.9.9.",
"9.9.9.J * * * * *               . U ( R R R R v                               7 ^ ( R R ( ( -                           F 9.9.9.",
"9.9.9.4.8 * * * * o           - } *.*.*.*.*.*.%./                           B +.*.*.*.*.*.*. .p                       & 6.9.9.9.",
"9.9.9.9.` * * * * *           , O.+.+.+.+.@.+.+.{                           F +.@.@.+.@.+.+.+.s                       ` 9.9.9.9.",
"9.9.9.9.8.f * * * * +           X           X                                                                       y 7.9.9.9.9.",
"9.9.9.9.9.-.8 * * * @                                                                                             $ ;.9.9.9.9.9.",
"9.9.9.9.9.9.` * * * * o                                                       X                                   ` 9.9.9.9.9.9.",
"9.9.9.9.9.9.9.D * * * @                                                                                         D 9.9.9.9.9.9.9.",
"9.9.9.9.9.9.9.7.M * * @ X                                                                                     b 7.9.9.9.9.9.9.9.",
"9.9.9.9.9.9.9.9.8.l * * %                                                                                   s 7.9.9.9.9.9.9.9.9.",
"9.9.9.9.9.9.9.9.9.8.M * * X                                                                               h 6.9.9.9.9.9.9.9.9.9.",
"9.9.9.9.9.9.9.9.9.9.7.H * @                                                                           . D 7.9.9.9.9.9.9.9.9.9.9.",
"9.9.9.9.9.9.9.9.9.9.9.9.[ 2 X                                                                       % ' 9.9.9.9.9.9.9.9.9.9.9.9.",
"9.9.9.9.9.9.9.9.9.9.9.9.9.;.y                                                                     e ;.9.9.9.9.9.9.9.9.9.9.9.9.9.",
"9.9.9.9.9.9.9.9.9.9.9.9.9.9.7.~ $                                                             & ` 7.9.9.9.9.9.9.9.9.9.9.9.9.9.9.",
"9.9.9.9.9.9.9.9.9.9.9.9.9.9.9.9.4.C #                                                     # G 6.9.9.9.9.9.9.9.9.9.9.9.9.9.9.9.9.",
"9.9.9.9.9.9.9.9.9.9.9.9.9.9.9.9.9.9.6.E , X                                           1 ! 6.9.9.9.9.9.9.9.9.9.9.9.9.9.9.9.9.9.9.",
"9.9.9.9.9.9.9.9.9.9.9.9.9.9.9.9.9.9.9.9.9.#.V <                               X 1 V $.9.9.9.9.9.9.9.9.9.9.9.9.9.9.9.9.9.9.9.9.9.",
"9.9.9.9.9.9.9.9.9.9.9.9.9.9.9.9.9.9.9.9.9.9.9.9.4.{ F g 6 = # X . # : q s G } 1.9.9.9.9.9.9.9.9.9.9.9.9.9.9.9.9.9.9.9.9.9.9.9.9."
};
